<?xml version="1.0" encoding="utf-8"?>
<!-- Generator: Adobe Illustrator 21.1.0, SVG Export Plug-In . SVG Version: 6.00 Build 0)  -->
<svg version="1.1" id="Ebene_1" xmlns="http://www.w3.org/2000/svg" xmlns:xlink="http://www.w3.org/1999/xlink" x="0px" y="0px"
	 viewBox="0 0 437.7 166" style="enable-background:new 0 0 437.7 166;" xml:space="preserve">
<style type="text/css">
	.st0{fill:none;}
	.st1{fill:#BE0A26;}
	.st2{fill:none;stroke:#707173;stroke-width:2.125;stroke-linecap:round;stroke-linejoin:round;stroke-miterlimit:10;}
</style>
<polyline class="st0" points="-2648.7,1335.2 1688.9,1335.2 1688.9,-1323 -2648.7,-1323 -2648.7,1335.2 "/>
<polyline class="st0" points="-2648.7,-1323 1688.9,-1323 1688.9,1335.2 -2648.7,1335.2 -2648.7,-1323 "/>
<g>
	<path class="st1" d="M64.5,80.4h-3.1l-3.6-14.5l-4.5,14.5h-2.9l-5.8-25h3.1l4.4,21.9l4.7-15.2h2l4.4,15.2l4.5-21.9h2.8L64.5,80.4z"
		/>
	<path class="st1" d="M76.3,58.6h-2.7v-3.2h2.7V58.6z M73.6,62.5h2.7v17.9h-2.7V62.5z"/>
	<path class="st1" d="M82.2,55.4h2.7v25h-2.7V55.4z"/>
	<path class="st1" d="M104.3,55.4v25h-1.6l-0.9-2c-1.9,1.4-3.6,2.3-5.7,2.3c-4.6,0-6.4-3.6-6.4-9.2c0-7.2,3.7-9.2,7.1-9.2
		c2,0,3.9,1,4.9,1.7v-8.6H104.3z M101.6,66.7c-1-1.2-2.8-2.2-4.2-2.2c-3.8,0-5,2.3-5,6.9c0,4.7,1.7,7,3.9,7c2.5,0,4.2-1.4,5.3-2.4
		V66.7z"/>
	<path class="st1" d="M111.8,72c0,5,2.9,6.3,5.7,6.3c1.9,0,2.8-0.4,4.9-1l0.4,2.1c-2.1,0.8-3.5,1.2-5.6,1.2c-4.6,0-8.1-2.6-8.1-9.1
		c0-5.8,3.2-9.3,7.4-9.3s6.7,3,6.7,7.7c0,0.6,0,1.6-0.1,2.2H111.8z M120.7,70c0-3.2-0.9-5.5-4.1-5.5c-3.3,0-4.5,2.6-4.6,5.5H120.7z"
		/>
	<path class="st1" d="M130.9,80.4h-2.7V62.5h1.7l0.4,2.1c2.1-1.7,3.4-2.5,5.5-2.5c1,0,1.5,0.2,1.6,0.2l-0.4,2.5
		c-0.3-0.1-1-0.2-1.8-0.2c-1.6,0-3.2,1.1-4.3,2.1V80.4z"/>
	<path class="st1" d="M153.9,64.6c1.2-1,3.1-2.4,5.7-2.4c3.1,0,5.7,1.8,5.7,5.6v12.6h-2.6V68.9c0-3-1.5-4.4-3.6-4.4
		c-2,0-4,1.4-4.5,1.8c0.1,0.5,0.2,1,0.2,1.5v12.6h-2.6V68.9c0-3-1.5-4.4-3.6-4.4c-2.3,0-3.4,0.9-4.4,1.7v14.2h-2.7V62.5h1.7l0.5,1.8
		c1.2-1,2.6-2.2,5.4-2.2C151,62.1,152.9,62.9,153.9,64.6z"/>
	<path class="st1" d="M182,62.5h2.7v17.9h-1.6l-0.9-2.1c-1.1,0.9-3,2.3-5.7,2.3c-3.1,0-5.1-2.1-5.1-5.8V62.5h2.7v11.8
		c0,2.7,0.7,4,2.8,4c1.9,0,4.2-1.4,5.1-2.5V62.5z"/>
	<path class="st1" d="M191.7,64.7h-2.4v-2.1h2.5v-5.1h2.7v5.1h4.4v2.1h-4.4V76c0,1.8,0.9,2.4,2.4,2.4c0.5,0,1-0.1,1.8-0.2l0.4,1.9
		c-0.9,0.3-1.6,0.5-2.6,0.5c-2.2,0-4.6-0.9-4.6-4.1V64.7z"/>
	<path class="st1" d="M214.3,80.4V68.6c0-2.7-1.2-4.3-3.6-4.3c-1.9,0-3.5,0.9-4.4,1.7v14.4h-2.7v-25h2.6v8.5c1.2-0.9,2.2-1.8,5-1.8
		c3.1,0,5.7,1.9,5.7,5.8v12.5H214.3z"/>
</g>
<g>
	<path class="st1" d="M45.7,105.2c0-7.7,4-12.7,11-12.7c2.2,0,4.6,0.5,6.7,1.3l-0.6,2.2c-1.8-0.7-5-1.2-6.2-1.2
		c-5.1,0-8.1,4.1-8.1,10c0,6.4,3.4,10.9,8.2,10.9c1.8,0,3.4-0.3,4.8-0.7v-7.5h-5.2v-2.3H64v11c-1.2,0.7-3.8,1.9-7.1,1.9
		C50,118,45.7,112.9,45.7,105.2z"/>
	<path class="st1" d="M67.5,99.9h3l4.5,15l4.6-15h3l-6.1,17.9c-1.6,4.7-3.3,6.9-6.3,8.4l-1-1.9c1.6-0.9,3.7-3,4.4-6.2L67.5,99.9z"/>
	<path class="st1" d="M98.7,102c1.2-1,3.1-2.4,5.7-2.4c3.1,0,5.7,1.8,5.7,5.6v12.6h-2.6v-11.5c0-3-1.5-4.4-3.6-4.4
		c-2,0-4,1.4-4.5,1.8c0.1,0.5,0.2,1,0.2,1.5v12.6h-2.6v-11.5c0-3-1.5-4.4-3.6-4.4c-2.3,0-3.4,0.9-4.4,1.7v14.2h-2.7V99.9H88l0.5,1.8
		c1.2-1,2.6-2.2,5.4-2.2C95.8,99.6,97.7,100.3,98.7,102z"/>
	<path class="st1" d="M119.3,117.8h-2.7V99.9h1.7l0.4,1.8c1.2-0.9,2.6-2.1,5.4-2.1c3.1,0,5.7,2,5.7,5.8v12.4h-2.7v-11.6
		c0-2.7-1.2-4.3-3.6-4.3c-1.9,0-3.5,0.9-4.3,1.7V117.8z"/>
	<path class="st1" d="M145.5,107.1c0-4.4-0.8-5.2-4.3-5.2c-2.1,0-3.9,0.4-4.9,0.8l-0.5-2.1c2.2-0.8,4.2-1,6.2-1c4.2,0,6.3,2,6.3,6.3
		v11.9h-1.6l-0.9-2.1c-2.2,1.9-3.5,2.3-5.6,2.3c-3.4,0-5.3-2.2-5.3-5.4c0-3.4,2.7-5.5,9.2-5.5H145.5z M144,109.4c-5,0-6.4,1-6.4,3
		c0,1.9,1.1,3.4,2.8,3.4s3.1-0.7,5.2-2.6v-3.7H144z"/>
	<path class="st1" d="M162.8,112.4c0-4.3-9.1-2.5-9.1-8.1c0-3,2.1-4.7,5.6-4.7c2.1,0,4.8,0.8,4.7,0.9l-0.5,2.3c0,0-2.1-0.8-4.2-0.8
		c-2.2,0-3,0.7-3,2.5c0,3.2,9.1,2.1,9.1,8.2c0,3.3-2.4,5.4-6.6,5.4c-2.1,0-4.3-0.8-5.4-1.4l0.6-2c0,0,2.3,1.1,4.6,1.1
		C161.2,115.7,162.8,114.6,162.8,112.4z"/>
	<path class="st1" d="M172.5,96h-2.7v-3.2h2.7V96z M169.9,99.9h2.7v17.9h-2.7V99.9z"/>
	<path class="st1" d="M188.7,99.9h2.7v17.9h-1.6l-0.9-2.1c-1.1,0.9-3,2.3-5.7,2.3c-3.1,0-5.1-2.1-5.1-5.8V99.9h2.7v11.8
		c0,2.7,0.7,4,2.8,4c1.9,0,4.2-1.4,5.1-2.5V99.9z"/>
	<path class="st1" d="M210.3,102c1.2-1,3.1-2.4,5.7-2.4c3.1,0,5.7,1.8,5.7,5.6v12.6h-2.6v-11.5c0-3-1.5-4.4-3.6-4.4
		c-2,0-4,1.4-4.5,1.8c0.1,0.5,0.2,1,0.2,1.5v12.6h-2.6v-11.5c0-3-1.5-4.4-3.6-4.4c-2.3,0-3.4,0.9-4.4,1.7v14.2h-2.7V99.9h1.7
		l0.5,1.8c1.2-1,2.6-2.2,5.4-2.2C207.5,99.6,209.3,100.3,210.3,102z"/>
</g>
<polyline class="st0" points="-2448.2,-1240.5 1016.6,-1240.5 1016.6,726.9 -2448.2,726.9 -2448.2,-1240.5 "/>
<polyline class="st0" points="-2648.7,1335.2 1688.9,1335.2 1688.9,-1323 -2648.7,-1323 -2648.7,1335.2 "/>
<polyline class="st2" points="309.4,43.9 255.3,55.2 249.4,64.6 297.9,58.6 327,20.2 363.9,61.1 390.6,64.5 381.8,54.5 326.9,20.2 
	"/>
<path class="st2" d="M249.4,117.2h68.9l0-14.2l0,0c0-3.9,3.9-7,8.8-7c4.9,0,8.8,3.1,8.8,7l0,0l0,14.2h28l26.7-9.6"/>
<polyline class="st2" points="354.1,136.1 299.3,136.1 299.3,130 299.3,130 348,130 348,123.9 305.8,123.9 "/>
<rect x="322.6" y="38.9" transform="matrix(0.7071 -0.7071 0.7071 0.7071 65.1589 243.8531)" class="st2" width="8.7" height="8.7"/>
<polyline class="st0" points="-2448.2,-1240.5 1016.6,-1240.5 1016.6,726.9 -2448.2,726.9 -2448.2,-1240.5 "/>
<polyline class="st0" points="-2648.7,1335.2 1688.9,1335.2 1688.9,-1323 -2648.7,-1323 -2648.7,1335.2 "/>
<polyline class="st0" points="-2648.7,-1323 1688.9,-1323 1688.9,1335.2 -2648.7,1335.2 -2648.7,-1323 "/>
</svg>
